<svg width="18" height="17" viewBox="0 0 18 17" fill="none" xmlns="http://www.w3.org/2000/svg">
<path d="M2.53018 16.776H14.7425C16.1377 16.776 17.2727 15.6736 17.2727 14.3185V2.45742C17.2727 1.10238 16.1377 0 14.7425 0H2.53018C1.13502 0 0 1.10238 0 2.45742V14.3185C0 15.6736 1.13502 16.776 2.53018 16.776ZM1.01207 2.45742C1.01207 1.64442 1.69311 0.982966 2.53018 0.982966H14.7425C15.5796 0.982966 16.2606 1.64442 16.2606 2.45742V14.3185C16.2606 15.1315 15.5796 15.793 14.7425 15.793H2.53018C1.69311 15.793 1.01207 15.1315 1.01207 14.3185V2.45742Z" fill="white"/>
<path d="M8.63635 12.8115C11.1476 12.8115 13.1907 10.8272 13.1907 8.3882C13.1907 5.94921 11.1476 3.96484 8.63635 3.96484C6.12515 3.96484 4.08203 5.94921 4.08203 8.3882C4.08203 10.8272 6.12515 12.8115 8.63635 12.8115ZM8.63635 4.94781C10.5896 4.94781 12.1786 6.49112 12.1786 8.3882C12.1786 10.2853 10.5896 11.8286 8.63635 11.8286C6.68311 11.8286 5.0941 10.2853 5.0941 8.3882C5.0941 6.49112 6.68311 4.94781 8.63635 4.94781Z" fill="white"/>
<path d="M13.4092 4.70914C14.2363 4.70914 14.9092 4.05557 14.9092 3.25227C14.9092 2.44898 14.2363 1.79541 13.4092 1.79541C12.5821 1.79541 11.9092 2.44898 11.9092 3.25227C11.9092 4.05557 12.5821 4.70914 13.4092 4.70914ZM13.4092 2.76665C13.6848 2.76665 13.9092 2.98455 13.9092 3.25227C13.9092 3.52 13.6848 3.73789 13.4092 3.73789C13.1335 3.73789 12.9092 3.52 12.9092 3.25227C12.9092 2.98455 13.1335 2.76665 13.4092 2.76665Z" fill="white"/>
</svg>
